<svg xmlns="http://www.w3.org/2000/svg" width="36" height="35" viewBox="0 0 36 35">
  <defs>
    <style>
      .cls-1 {
        fill: #179ed6;
        fill-rule: evenodd;
      }
    </style>
  </defs>
  <path id="Rectangle_25_copy_5" data-name="Rectangle 25 copy 5" class="cls-1" d="M542,580h36v35H542V580Zm5,11h26v19H547V591Zm0-12h9v7h-9v-7Zm17,0h9v7h-9v-7Zm-14,1h3v3h-3v-3Zm17,0h3v3h-3v-3Zm-17,15h4v4h-4v-4Zm8,0h4v4h-4v-4Zm8,0h4v4h-4v-4Zm-16,7h4v4h-4v-4Zm8,0h4v4h-4v-4Zm8,0h4v4h-4v-4Z" transform="translate(-542 -580)"/>
</svg>
